<?xml version="1.0" encoding="UTF-8" standalone="no"?>
<!-- Created with Inkscape (http://www.inkscape.org/) -->

<svg
   width="64pt"
   height="64pt"
   viewBox="0 0 22.577778 22.577778"
   version="1.1"
   id="svg831"
   inkscape:version="1.1.1 (3bf5ae0d25, 2021-09-20)"
   sodipodi:docname="Export - Unblash - 64px.svg"
   inkscape:export-filename="C:\Users\User\Desktop\Done Januari 2k22\EX\13 - Workspace.png"
   inkscape:export-xdpi="576"
   inkscape:export-ydpi="576"
   xmlns:inkscape="http://www.inkscape.org/namespaces/inkscape"
   xmlns:sodipodi="http://sodipodi.sourceforge.net/DTD/sodipodi-0.dtd"
   xmlns="http://www.w3.org/2000/svg"
   xmlns:svg="http://www.w3.org/2000/svg"
   xmlns:rdf="http://www.w3.org/1999/02/22-rdf-syntax-ns#"
   xmlns:cc="http://creativecommons.org/ns#"
   xmlns:dc="http://purl.org/dc/elements/1.1/">
  <defs
     id="defs825">
    <pattern
       id="EMFhbasepattern"
       patternUnits="userSpaceOnUse"
       width="6"
       height="6"
       x="0"
       y="0" />
    <pattern
       id="EMFhbasepattern-9"
       patternUnits="userSpaceOnUse"
       width="6"
       height="6"
       x="0"
       y="0" />
    <pattern
       id="EMFhbasepattern-0"
       patternUnits="userSpaceOnUse"
       width="6"
       height="6"
       x="0"
       y="0" />
    <pattern
       id="EMFhbasepattern-7"
       patternUnits="userSpaceOnUse"
       width="6"
       height="6"
       x="0"
       y="0" />
    <pattern
       id="EMFhbasepattern-2"
       patternUnits="userSpaceOnUse"
       width="6"
       height="6"
       x="0"
       y="0" />
    <pattern
       id="EMFhbasepattern-98"
       patternUnits="userSpaceOnUse"
       width="6"
       height="6"
       x="0"
       y="0" />
    <pattern
       id="EMFhbasepattern-6"
       patternUnits="userSpaceOnUse"
       width="6"
       height="6"
       x="0"
       y="0" />
    <pattern
       id="EMFhbasepattern-01"
       patternUnits="userSpaceOnUse"
       width="6"
       height="6"
       x="0"
       y="0" />
    <pattern
       id="EMFhbasepattern-07"
       patternUnits="userSpaceOnUse"
       width="6"
       height="6"
       x="0"
       y="0" />
    <pattern
       id="EMFhbasepattern-8"
       patternUnits="userSpaceOnUse"
       width="6"
       height="6"
       x="0"
       y="0" />
    <pattern
       id="EMFhbasepattern-4"
       patternUnits="userSpaceOnUse"
       width="6"
       height="6"
       x="0"
       y="0" />
    <pattern
       id="EMFhbasepattern-40"
       patternUnits="userSpaceOnUse"
       width="6"
       height="6"
       x="0"
       y="0" />
    <pattern
       id="EMFhbasepattern-08"
       patternUnits="userSpaceOnUse"
       width="6"
       height="6"
       x="0"
       y="0" />
    <pattern
       id="EMFhbasepattern-04"
       patternUnits="userSpaceOnUse"
       width="6"
       height="6"
       x="0"
       y="0" />
    <pattern
       id="EMFhbasepattern-014"
       patternUnits="userSpaceOnUse"
       width="6"
       height="6"
       x="0"
       y="0" />
    <pattern
       id="EMFhbasepattern-27"
       patternUnits="userSpaceOnUse"
       width="6"
       height="6"
       x="0"
       y="0" />
    <pattern
       id="EMFhbasepattern-09"
       patternUnits="userSpaceOnUse"
       width="6"
       height="6"
       x="0"
       y="0" />
    <pattern
       id="EMFhbasepattern-5"
       patternUnits="userSpaceOnUse"
       width="6"
       height="6"
       x="0"
       y="0" />
    <pattern
       id="EMFhbasepattern-018"
       patternUnits="userSpaceOnUse"
       width="6"
       height="6"
       x="0"
       y="0" />
  </defs>
  <sodipodi:namedview
     id="base"
     pagecolor="#ffffff"
     bordercolor="#666666"
     borderopacity="1.0"
     inkscape:pageopacity="0.0"
     inkscape:pageshadow="2"
     inkscape:zoom="4.5878906"
     inkscape:cx="-13.513836"
     inkscape:cy="48.279268"
     inkscape:document-units="pt"
     inkscape:current-layer="layer1"
     showgrid="false"
     units="pt"
     inkscape:window-width="1920"
     inkscape:window-height="1001"
     inkscape:window-x="-9"
     inkscape:window-y="41"
     inkscape:window-maximized="1"
     inkscape:pagecheckerboard="true"
     inkscape:showpageshadow="false"
     inkscape:object-paths="true"
     inkscape:snap-intersection-paths="true"
     inkscape:snap-smooth-nodes="true"
     inkscape:snap-midpoints="true"
     showguides="true"
     inkscape:snap-bbox="true"
     inkscape:bbox-nodes="true"
     inkscape:snap-nodes="false"
     inkscape:snap-global="true">
    <inkscape:grid
       type="xygrid"
       id="grid1378" />
    <sodipodi:guide
       position="0.97013831,21.607643"
       orientation="78.000048,0"
       id="guide1380"
       inkscape:locked="false" />
    <sodipodi:guide
       position="0.97013831,0.97013129"
       orientation="0,78.000005"
       id="guide1382"
       inkscape:locked="false" />
    <sodipodi:guide
       position="21.607639,0.97013129"
       orientation="-78.000048,0"
       id="guide1384"
       inkscape:locked="false" />
    <sodipodi:guide
       position="21.607639,21.607643"
       orientation="0,-78.000005"
       id="guide1386"
       inkscape:locked="false" />
  </sodipodi:namedview>
  <metadata
     id="metadata828">
    <rdf:RDF>
      <cc:Work
         rdf:about="">
        <dc:format>image/svg+xml</dc:format>
        <dc:type
           rdf:resource="http://purl.org/dc/dcmitype/StillImage" />
      </cc:Work>
    </rdf:RDF>
  </metadata>
  <g
     inkscape:label="Icon"
     inkscape:groupmode="layer"
     id="layer1"
     transform="translate(0,-274.42223)">
    <path
       id="rect27065"
       style="color:#000000;display:inline;fill:#000000;stroke-width:1;stroke-linecap:round;stroke-linejoin:round;-inkscape-stroke:none"
       d="m 11.956562,275.55833 c -0.547556,0 -1.000539,0.44973 -1.000539,0.99729 v 5.32711 c 0,0.54756 0.452974,0.99793 1.000539,0.99793 h 3.235661 l -0.167081,0.66573 h -0.07346 c -0.547564,0 -0.997941,0.45036 -0.997938,0.99794 v 0.33416 H 9.5777636 v -1.49918 h 0.3809718 c 0.2796926,0 0.4986446,0.22156 0.4986436,0.50124 7.32e-4,0.18384 0.150328,0.33229 0.334163,0.33156 0.182821,-6.9e-4 0.33085,-0.14874 0.331563,-0.33156 10e-7,-0.63948 -0.524887,-1.16697 -1.1643696,-1.16697 H 9.5777636 v -0.33156 c 6.99e-4,-0.18383 -0.1477348,-0.33343 -0.3315627,-0.33416 H 6.6782161 c -0.1848443,-7e-4 -0.3348676,0.14931 -0.3341629,0.33416 v 2.49647 H 5.299956 v -0.44988 c -6.9e-6,-0.61244 -0.505772,-1.11822 -1.118211,-1.11822 H 4.0042614 l -1.0792035,-2.3853 c 0.4217855,-0.302 0.5015128,-0.82191 0.2639498,-1.23653 l 1.2859427,-1.28399 0.1761834,0.52724 c 0.015844,0.0488 0.042769,0.0933 0.078664,0.13004 l 0.6930307,0.69303 c 0.1300671,0.13037 0.3412716,0.13037 0.4713388,0 l 1.3834611,-1.38347 c 0.1303733,-0.13006 0.1303733,-0.34128 0,-0.47133 l -0.6930307,-0.69303 c -0.036696,-0.0359 -0.081198,-0.0628 -0.1300246,-0.0786 l -1.0369455,-0.34652 c -0.1194859,-0.0406 -0.2516487,-0.0101 -0.3413146,0.0786 l -0.1111714,0.11122 -0.3192105,-0.31726 c -0.1529071,-0.1407 -0.3479052,-0.10593 -0.4687384,-6.7e-4 -0.1308264,0.13014 -0.1308264,0.34186 0,0.47199 l 0.3166098,0.31726 -0.110521,0.11058 -0.0013,0.003 -1.6773167,1.67797 c -0.6724626,-0.25484 -1.3793367,0.22935 -1.4003663,0.91208 7e-6,0.54521 0.4464215,0.99668 0.990787,1.00054 l 0.9829856,2.17142 c -0.5558639,0.062 -0.9953312,0.54002 -0.9953379,1.11106 v 0.44988 H 1.9706777 c -0.5475505,0 -1.00054139,0.44973 -1.00053887,0.99728 v 0.9999 c -2.52e-6,0.54755 0.45298837,0.99793 1.00053887,0.99793 h 1.7143736 l 0.1807341,1.08311 -2.2097671,6.46547 c -0.072843,0.21553 0.087154,0.439 0.3146594,0.43948 H 3.302129 c 0.1374111,-6e-4 0.2603367,-0.0856 0.3094584,-0.21389 l 0.95308,-2.49907 0.4056765,2.43536 c 0.027079,0.16076 0.1665899,0.27826 0.3296121,0.2776 h 1.3288511 c 0.2052129,5.6e-4 0.3620545,-0.18289 0.329612,-0.38553 L 5.6913302,287.87422 H 16.889694 l -1.26709,7.60253 c -0.03224,0.20134 0.12246,0.38409 0.326362,0.38553 h 1.332101 c 0.162778,3.4e-4 0.301926,-0.11713 0.328963,-0.2776 l 0.406326,-2.43601 0.95243,2.49972 c 0.04913,0.12834 0.172047,0.21329 0.309458,0.21389 h 1.332102 c 0.227505,-5e-4 0.387502,-0.22395 0.314659,-0.43948 l -2.209767,-6.46547 0.180735,-1.08311 h 1.714373 c 0.547551,0 0.997296,-0.45038 0.997288,-0.99793 v -0.9999 c -3e-6,-0.54755 -0.449737,-0.99728 -0.997288,-0.99728 h -1.997828 v -0.33417 c 4e-6,-0.54757 -0.449721,-0.99793 -0.997287,-0.99793 h -0.07346 l -0.167082,-0.66573 h 3.235661 c 0.547564,0 0.997288,-0.45037 0.997288,-0.99793 v -5.32711 c 0,-0.54756 -0.449732,-0.9973 -0.997288,-0.9973 z m 0,0.66573 h 8.653784 c 0.187778,0 0.331562,0.14378 0.331562,0.33156 v 4.32721 h -9.320159 v -4.32721 c 0,-0.18778 0.147034,-0.33156 0.334813,-0.33156 z m 4.326567,1.05449 c -0.08859,2e-5 -0.173528,0.0354 -0.235995,0.0981 l -0.940727,0.94073 c -0.130827,0.13014 -0.130827,0.34186 0,0.47199 0.130132,0.13083 0.341856,0.13083 0.471989,0 l 0.940727,-0.94137 c 0.130392,-0.13006 0.130392,-0.34129 0,-0.47135 -0.06246,-0.0628 -0.1474,-0.0981 -0.235994,-0.0981 z m -10.8798034,0.19894 0.7664948,0.25811 0.4004753,0.40046 -0.911472,0.91409 -0.4030758,-0.40309 -0.2554983,-0.76648 c 0.1346894,-0.13488 0.2682292,-0.26869 0.403076,-0.40309 z m 11.8211814,0.74245 c -0.0885,-1.7e-4 -0.173421,0.035 -0.235995,0.0975 l -0.941378,0.94138 c -0.130826,0.13012 -0.130826,0.34186 0,0.47199 0.130133,0.13083 0.341856,0.13083 0.471989,0 l 0.941378,-0.94138 c 0.130826,-0.13014 0.130826,-0.34186 0,-0.47199 -0.06258,-0.0627 -0.147494,-0.0976 -0.235994,-0.0975 z m -8.7818578,0.72164 c -0.1538053,0.10152 -0.1957763,0.3088 -0.093618,0.46222 0.1380255,0.20704 0.1437348,0.29961 0.1352255,0.36343 -0.0085,0.0638 -0.05201,0.14043 -0.1352255,0.26525 -0.083216,0.1248 -0.2048461,0.29982 -0.2379448,0.54805 -0.0331,0.24824 0.043108,0.52884 0.2379448,0.8211 0.1017925,0.15359 0.3089836,0.19525 0.4622373,0.093 0.1531771,-0.10177 0.1948076,-0.30846 0.092967,-0.46158 -0.1380253,-0.20704 -0.1437345,-0.3022 -0.1352256,-0.36602 0.0085,-0.0638 0.05201,-0.13848 0.1352256,-0.2633 0.083216,-0.1248 0.2080969,-0.29981 0.2411957,-0.54805 0.033097,-0.24826 -0.046359,-0.5282 -0.2411957,-0.82046 -0.105924,-0.17095 -0.3425778,-0.17734 -0.4615872,-0.0936 z m -0.9569807,0.53764 c -0.1676534,-10e-4 -0.3102758,0.12191 -0.3328629,0.28801 -0.0085,0.0638 -0.05006,0.14043 -0.1332749,0.26525 -0.083216,0.1248 -0.2074467,0.29982 -0.2405453,0.54805 -0.0331,0.24824 0.045708,0.52884 0.2405453,0.8211 0.101673,0.15198 0.3068952,0.19348 0.4596367,0.093 0.1534018,-0.10152 0.1953315,-0.30828 0.093618,-0.46158 -0.1380249,-0.20707 -0.1437349,-0.30288 -0.1352259,-0.36671 0.0085,-0.0638 0.05201,-0.13782 0.1352255,-0.26264 0.083216,-0.1248 0.2074471,-0.29981 0.2405456,-0.54805 0.023796,-0.18243 -0.1049037,-0.34957 -0.2873544,-0.37318 -0.013354,-0.003 -0.026816,-0.003 -0.040307,-0.004 z m -5.1834283,0.33481 c 0.2067155,0.0101 0.3232453,0.14336 0.334162,0.33158 0.010467,0.1856 -0.1488589,0.31361 -0.334162,0.33415 -0.1877755,0 -0.3315601,-0.14639 -0.3315625,-0.33417 -1.2e-6,-0.18777 0.1437842,-0.33156 0.3315625,-0.33156 z m 9.3195088,1.73453 h 9.320159 v 0.33417 c 0,0.18778 -0.143788,0.3322 -0.331562,0.3322 h -4.985792 -3.667992 c -0.187774,0 -0.334813,-0.14442 -0.334813,-0.3322 z m -4.6119702,1.16502 H 8.912038 v 2.16491 H 7.0097788 Z m 8.8670232,0.16708 h 0.811354 l 0.167081,0.66573 H 15.71037 Z m -11.695057,1.0961 c 0.2526565,0 0.4524824,0.19919 0.4524853,0.45185 v 0.44988 h -1.685768 v -0.44988 c 2.9e-6,-0.24477 0.1870289,-0.43991 0.4284308,-0.45185 z m 10.769932,0.23535 h 2.663554 c 0.187776,0 0.331564,0.14444 0.331562,0.33222 v 0.33416 h -3.326677 v -0.33416 c -3e-6,-0.18778 0.143785,-0.33222 0.331561,-0.33222 z m -12.9809993,1.3321 H 20.610346 c 0.187767,0 0.331561,0.1438 0.331562,0.33156 v 0.9999 c 3e-6,0.18777 -0.1438,0.33221 -0.331562,0.33221 H 1.9706777 c -0.1877647,0 -0.3348141,-0.14444 -0.3348132,-0.33221 v -0.9999 c -9e-7,-0.18776 0.1470485,-0.33156 0.3348132,-0.33156 z m 2.3879007,2.3294 h 0.6585743 l 1.2215807,7.32233 H 5.580159 Z m 13.2046426,0 h 0.658574 l -1.22093,7.32233 H 16.34229 Z m -8.2708613,0.66573 c -0.4556273,0 -0.8328072,0.37715 -0.8328072,0.8328 v 0.66638 c 0,0.45565 0.3771596,0.8302 0.8328072,0.8302 h 0.1885355 l -1.6844679,4.54566 c -0.063888,0.17234 0.024006,0.36386 0.1963371,0.42778 0.1730969,0.0657 0.3664736,-0.0226 0.4303812,-0.19633 l 1.7676834,-4.77711 h 0.765194 v 3.99566 c 7.33e-4,0.18383 0.150328,0.33228 0.334163,0.33156 0.182821,-7e-4 0.33085,-0.14874 0.331563,-0.33156 v -3.99566 h 0.768445 l 1.767684,4.77711 c 0.06393,0.17233 0.255436,0.26021 0.427781,0.19633 0.172329,-0.0639 0.260225,-0.25544 0.196337,-0.42778 l -1.681867,-4.54566 h 0.187884 c 0.455647,0 0.830208,-0.37455 0.830208,-0.8302 v -0.66638 c 0,-0.45565 -0.37457,-0.8328 -0.830208,-0.8328 z m 0,0.66571 h 3.9956533 c 0.09586,0 0.164482,0.0712 0.164482,0.16709 v 0.66638 c 0,0.0959 -0.06863,0.16448 -0.164482,0.16448 H 9.2923597 c -0.095857,0 -0.1670815,-0.0687 -0.1670815,-0.16448 v -0.66638 c 0,-0.0959 0.071205,-0.16709 0.1670815,-0.16709 z m -6.221026,5.99089 H 2.4374658 l 1.6584631,-4.85642 0.254198,1.52194 c -0.4368293,1.10663 -0.8544676,2.2225 -1.2787932,3.33448 z m 15.4131113,-4.85575 1.659112,4.85576 h -0.63647 c -0.427614,-1.10791 -0.840697,-2.23622 -1.276189,-3.33512 z"
       sodipodi:nodetypes="ssssccsscccscscscccccccsscccccccccccccccccccccccccscssssccccccccccccccccccccccccsccscssccssssssssccsscccccccccccccccccccccccccscscccscscccccscccsccccccccscccsscssccccccccccccsccsccccsccscssccsssssccccccccccsssscccccccscccccccsssssssssssssscccccccccc" />
  </g>
</svg>
